<svg width="113" height="32" viewBox="0 0 113 32" fill="none" xmlns="http://www.w3.org/2000/svg">
<path d="M26.0618 6.20315C24.9198 7.34367 23.807 8.45469 22.6617 9.59848C22.3494 9.29369 22.0142 8.96268 21.6759 8.63494C18.6694 5.74432 14.1306 4.95448 10.4376 6.74391C7.75983 8.04174 6.10695 10.2343 5.34559 13.0954C4.50614 16.2515 4.70787 19.3486 6.34447 22.2097C8.352 25.723 11.4788 27.2568 15.4581 27.0012C18.1033 26.8308 20.3191 25.6804 22.1411 23.7533C22.3266 23.5567 22.5023 23.3469 22.6162 23.2191L26.1399 26.5915C24.7083 28.2466 23.1107 29.5903 21.1813 30.4621C16.265 32.6874 11.4235 32.5563 6.81626 29.6591C3.33481 27.4797 1.298 24.2023 0.432519 20.204C-0.354873 16.5432 -0.101086 12.9315 1.4737 9.51327C3.80009 4.47271 7.72078 1.5231 13.2521 0.992172C18.1521 0.520235 22.3006 2.19496 25.6811 5.79676C25.8015 5.92458 25.9219 6.05239 26.0618 6.20315Z" fill="black"/>
<path d="M98.3366 31.5214H93.4756V0.00976562H98.3268V11.5001C98.7889 11.2412 99.1598 10.9922 99.56 10.8119C102.495 9.47802 105.41 9.47146 108.195 11.1757C110.108 12.3457 111.13 14.2007 111.579 16.367C111.752 17.2027 111.839 18.0712 111.846 18.9233C111.872 22.9512 111.859 26.979 111.859 31.0069V31.5182H106.982V31.0397C106.982 27.1069 107.001 23.174 106.965 19.2412C106.959 18.4874 106.835 17.7107 106.614 16.993C106.162 15.528 105.029 14.7414 103.51 14.7742C101.818 14.8103 100.292 15.2756 99.2444 16.7373C98.5318 17.7304 98.3399 18.884 98.3366 20.077C98.3366 23.7214 98.3366 27.369 98.3366 31.0135V31.5182V31.5214Z" fill="black"/>
<path d="M56.5524 31.5209H51.6882V30.3935C50.9301 30.7507 50.25 31.1571 49.5147 31.4062C46.5864 32.3927 43.7817 32.16 41.2601 30.2526C39.5096 28.9285 38.6636 27.0309 38.3253 24.9039C38.1886 24.0453 38.1365 23.1669 38.1333 22.2952C38.1138 18.4738 38.1235 14.6491 38.1235 10.8245V10.3066H43.0301V10.795C43.0301 14.754 43.0106 18.713 43.0496 22.6721C43.0561 23.4357 43.2123 24.2255 43.4498 24.9498C43.8663 26.2214 44.8066 26.9293 46.1471 27.0244C47.1623 27.0998 48.1482 26.9293 49.0755 26.4902C50.7446 25.7003 51.4767 24.2845 51.6426 22.5082C51.6784 22.128 51.6784 21.7446 51.6784 21.3611C51.6784 17.8511 51.6784 14.3443 51.6784 10.8343V10.3066H56.5492V31.5209H56.5524Z" fill="black"/>
<path d="M87.6939 24.7661C88.8164 25.9656 89.9194 27.1422 91.0257 28.3253C87.0594 32.8874 79.5662 33.202 75.1184 29.0168C70.6283 24.7891 70.6283 16.8415 75.1509 12.6825C79.4165 8.75956 86.9456 8.87099 91.0224 13.5019C89.8901 14.6326 88.7579 15.7632 87.593 16.9234C87.349 16.7104 87.0594 16.4548 86.7601 16.2024C84.1506 13.9968 79.8493 14.4031 77.8222 17.0447C76.3548 18.9554 76.1954 21.9345 77.4415 24.127C78.6031 26.1721 80.9815 27.3061 83.4316 27.0144C84.8404 26.8472 86.0606 26.2999 87.0855 25.3102C87.2579 25.143 87.4434 24.989 87.6907 24.7694L87.6939 24.7661Z" fill="black"/>
<path d="M62.2201 14.9313H58.8232V10.2775H62.1973V3.17221C62.3568 3.1591 62.4739 3.14272 62.591 3.14272C63.9608 3.14272 65.3274 3.15255 66.6972 3.13288C67.0258 3.12961 67.1071 3.23776 67.1039 3.55238C67.0909 5.61384 67.0974 7.67529 67.0974 9.73674V10.2742H71.0766V14.9149H67.1104V31.5147H62.2201V14.9313Z" fill="black"/>
<path d="M29.166 0H33.9717V31.5182H29.166V0Z" fill="black"/>
<path d="M86.1415 20.9358C86.2716 22.7908 84.5927 24.6163 82.5266 24.5933C80.4703 24.5704 78.8923 22.9776 78.8955 20.8932C78.8988 18.8482 80.5061 17.2291 82.5299 17.2324C84.7684 17.2324 86.3074 19.1988 86.1447 20.9358H86.1415Z" fill="#F35422"/>
</svg>
