<svg width="399" height="94" viewBox="0 0 399 94" fill="none" xmlns="http://www.w3.org/2000/svg">
<path d="M8.46634 85V37.2122L7.52563 29.6866H21.0718L53.0557 63.1757L56.7245 68.2555H57.7592V29.6866H70.1765V85H58.2296L25.4931 50.9465L21.8243 46.5252H20.8836V85H8.46634ZM137.821 85L141.395 79.3558L162.279 57.3433L137.821 29.6866H152.872L171.027 50.4762H172.062L190.312 29.6866H205.363L201.694 35.2367L180.905 57.3433L205.363 85H190.312L172.062 64.0223H171.027L152.872 85H137.821ZM209.152 85V29.6866H221.57V85H209.152ZM248.191 85C243.801 85 240.352 84.3729 237.843 83.1186C235.335 81.8643 233.547 79.9829 232.481 77.4744C231.478 74.9658 230.976 71.8615 230.976 68.1614V46.4311C230.976 42.7937 231.478 39.7521 232.481 37.3063C233.485 34.7977 235.24 32.9163 237.749 31.6621C240.258 30.3451 243.738 29.6866 248.191 29.6866H275.659C280.049 29.6866 283.467 30.3451 285.913 31.6621C288.422 32.9163 290.178 34.7977 291.181 37.3063C292.247 39.7521 292.78 42.7937 292.78 46.4311V68.1614C292.78 73.6802 291.557 77.882 289.111 80.7668C286.666 83.5889 282.182 85 275.659 85H248.191ZM250.919 75.9692H273.025C275.346 75.9692 277.133 75.3735 278.387 74.1819C279.704 72.9903 280.363 71.3598 280.363 69.2902V45.3023C280.363 43.4836 279.704 41.9471 278.387 40.6928C277.07 39.3758 275.283 38.7173 273.025 38.7173H250.919C248.661 38.7173 246.843 39.3131 245.463 40.5047C244.083 41.6962 243.393 43.2954 243.393 45.3023V69.2902C243.393 71.4225 244.052 73.0844 245.369 74.276C246.748 75.4048 248.598 75.9692 250.919 75.9692ZM303.116 85V37.2122L302.176 29.6866H315.722L347.706 63.1757L351.374 68.2555H352.409V29.6866H364.826V85H352.879L320.143 50.9465L316.474 46.5252H315.534V85H303.116Z" fill="#F14E13"/>
<path d="M135.51 30.5819H78.7715V39.66H135.51V30.5819Z" fill="#F14E13"/>
<path d="M98.9946 51.4236H133.901V62.7713H103.336C98.1832 62.7713 93.2004 62.9943 92.1347 68.036C91.3748 71.6308 97.2589 74.1189 100.933 74.1189H133.901V84.3318H100.388C92.0985 84.3318 83.0986 81.38 80.0236 73.682C78.4721 69.7978 78.1279 65.4275 80.3484 60.5928C83.4647 53.8076 91.5279 51.4236 98.9946 51.4236Z" fill="#F14E13"/>
</svg>
